<?xml version="1.0" standalone="no"?>
<!DOCTYPE svg PUBLIC "-//W3C//DTD SVG 20010904//EN"
 "http://www.w3.org/TR/2001/REC-SVG-20010904/DTD/svg10.dtd">
<svg version="1.0" xmlns="http://www.w3.org/2000/svg"
 width="500.000000pt" height="500.000000pt" viewBox="0 0 500.000000 500.000000"
 preserveAspectRatio="xMidYMid meet">

<g transform="translate(0.000000,500.000000) scale(0.100000,-0.100000)"
fill="#000000" stroke="none">
<path d="M0 2500 l0 -2500 2500 0 2500 0 0 2500 0 2500 -2500 0 -2500 0 0
-2500z m2215 840 c0 -20 -5 -25 -25 -25 -20 0 -26 6 -28 28 -3 26 -1 28 25 25
22 -2 28 -8 28 -28z m665 15 c0 -28 -54 -145 -66 -145 -10 0 -10 8 2 35 18 43
17 45 -1 45 -11 0 -15 11 -15 40 l0 40 40 0 c29 0 40 -4 40 -15z m-968 -167
l3 -163 89 163 c49 89 95 162 103 162 19 0 18 -2 -32 -90 -25 -44 -45 -84 -45
-90 0 -6 20 -46 45 -89 25 -43 45 -83 45 -89 0 -29 -22 -6 -60 64 -23 41 -46
74 -51 72 -6 -2 -27 -35 -48 -73 -20 -39 -45 -71 -54 -73 -15 -3 -17 14 -17
182 0 114 4 186 10 186 6 0 11 -65 12 -162z m293 -74 c0 -108 -2 -129 -15
-129 -12 0 -16 21 -18 119 -3 127 0 150 21 143 9 -3 12 -38 12 -133z m95 116
c0 -20 0 -20 29 1 36 26 92 20 116 -14 20 -28 22 -241 3 -235 -9 3 -14 36 -16
108 -1 57 -8 110 -14 117 -14 17 -59 17 -84 -2 -12 -8 -24 -11 -28 -8 -3 3 -6
-44 -6 -105 0 -68 -4 -112 -10 -112 -6 0 -10 52 -10 135 0 83 4 135 10 135 6
0 10 -9 10 -20z m366 10 c49 -19 53 -34 54 -193 0 -144 -1 -149 -25 -172 -47
-48 -136 -26 -151 38 -5 21 -3 27 10 27 9 0 16 -8 16 -19 0 -22 35 -51 61 -51
30 0 58 34 65 77 l6 42 -55 -6 c-50 -5 -58 -3 -81 20 -24 24 -26 33 -26 106 0
97 4 110 44 127 38 16 47 17 82 4z m427 -21 c21 -26 22 -59 2 -59 -8 0 -15 8
-15 18 0 27 -20 42 -56 42 -37 0 -57 -20 -52 -51 2 -17 18 -29 68 -48 62 -25
65 -28 68 -63 4 -49 -26 -78 -84 -78 -48 0 -80 22 -90 63 -5 21 -3 27 10 27 9
0 16 -8 16 -19 0 -49 101 -62 122 -16 15 33 0 50 -57 64 -74 18 -102 61 -74
112 23 43 109 48 142 8z m-1261 -669 c63 -18 88 -80 49 -119 -19 -19 -19 -20
3 -35 54 -35 35 -117 -32 -135 -20 -6 -58 -11 -84 -11 l-48 0 0 155 0 155 38
0 c20 0 54 -5 74 -10z m348 -3 c14 -7 25 -19 25 -26 0 -15 -112 -117 -120
-109 -3 3 22 27 56 54 l61 48 -22 18 c-14 11 -39 18 -67 18 -36 0 -50 -6 -73
-28 -54 -54 -50 -197 7 -241 31 -25 99 -28 131 -5 12 8 22 11 22 5 0 -18 -37
-31 -90 -31 -43 0 -56 5 -80 28 -62 63 -47 244 23 272 33 13 98 11 127 -3z
m260 4 l-55 -6 -5 -150 -6 -150 -2 152 -2 152 -57 4 c-32 2 -4 3 62 3 78 1
101 -1 65 -5z m260 0 l-55 -6 -5 -150 -6 -150 -2 152 -2 152 -57 4 c-32 2 -4
3 62 3 78 1 101 -1 65 -5z m306 -14 l26 -23 -63 -52 c-35 -29 -68 -52 -72 -52
-5 0 19 23 52 51 34 28 61 55 61 60 0 25 -104 38 -142 18 -29 -16 -48 -70 -48
-139 0 -66 18 -113 49 -130 29 -15 104 -12 129 6 12 8 22 11 22 6 0 -15 -49
-32 -91 -32 -92 0 -124 48 -117 177 3 70 6 77 36 104 43 38 117 41 158 6z
m216 13 c50 -14 68 -34 68 -75 0 -24 -7 -38 -25 -52 l-26 -18 35 -78 c20 -42
33 -77 30 -77 -3 0 -21 34 -41 76 l-36 76 26 24 c35 32 36 77 3 99 -12 8 -47
16 -77 18 l-54 2 -5 -150 -6 -150 -2 158 -2 157 38 0 c20 0 54 -5 74 -10z
m-1608 -879 c42 -68 75 -126 72 -128 -2 -2 -39 53 -82 124 l-79 128 -5 -145
-6 -145 -2 160 c-2 136 0 157 12 145 7 -8 48 -71 90 -139z m96 -8 c0 -86 -3
-153 -7 -148 -8 10 -5 305 3 305 2 0 4 -71 4 -157z m117 -75 c-1 -46 -3 -11
-3 77 0 88 2 125 3 83 2 -42 2 -114 0 -160z m308 172 l65 64 0 -157 0 -157
-107 2 -108 2 103 3 102 4 0 142 0 141 -63 -62 -63 -62 -54 55 -55 56 -5 -143
-6 -143 -2 160 -2 159 65 -64 65 -64 65 64z m603 53 l-58 -4 -2 -152 -2 -152
-6 150 -5 150 -55 6 c-36 4 -13 6 65 5 66 0 94 -1 63 -3z m129 -225 c-1 -46
-3 -11 -3 77 0 88 2 125 3 83 2 -42 2 -114 0 -160z m282 217 c38 -19 55 -66
55 -145 -1 -111 -35 -150 -130 -150 -63 0 -99 36 -109 108 -13 93 11 173 58
192 34 14 95 11 126 -5z m160 -150 l-5 -150 -2 160 c-1 87 1 155 6 150 4 -6 5
-77 1 -160z m191 8 c0 -135 -2 -155 -14 -143 -22 24 -168 262 -163 266 3 3 40
-53 83 -123 l79 -128 3 143 c1 78 5 142 7 142 3 0 5 -71 5 -157z m256 141 c18
-15 18 -15 -3 -5 -37 19 -111 13 -133 -9 -46 -46 -12 -98 81 -121 89 -23 123
-78 80 -130 -15 -19 -30 -24 -87 -27 -54 -3 -74 0 -89 13 l-20 17 20 -8 c42
-16 125 -16 150 0 62 40 36 94 -61 126 -76 25 -104 49 -104 85 0 43 41 75 98
75 29 0 56 -6 68 -16z m-2372 -144 c31 -74 56 -138 56 -142 0 -5 -44 -7 -97
-6 l-98 2 88 3 c62 3 87 7 87 16 0 14 -92 233 -102 242 -3 3 -32 -55 -63 -130
-32 -74 -60 -133 -62 -131 -2 2 24 70 58 151 34 80 65 143 69 138 4 -4 32 -69
64 -143z m1081 10 c31 -74 59 -141 62 -147 4 -10 -18 -13 -93 -11 l-99 2 88 3
c48 2 87 6 87 9 0 12 -104 254 -109 254 -3 0 -30 -59 -60 -130 -29 -72 -57
-133 -62 -136 -5 -2 9 37 30 88 61 146 91 211 95 207 2 -2 29 -65 61 -139z"/>
<path d="M2180 3340 c0 -5 5 -10 10 -10 6 0 10 5 10 10 0 6 -4 10 -10 10 -5 0
-10 -4 -10 -10z"/>
<path d="M2820 3330 c0 -11 6 -20 14 -20 7 0 16 9 19 20 4 15 0 20 -14 20 -12
0 -19 -7 -19 -20z"/>
<path d="M2585 3206 c-15 -11 -20 -29 -23 -83 -5 -87 14 -117 73 -115 61 2 68
15 63 106 -4 62 -9 82 -23 92 -24 18 -66 18 -90 0z"/>
<path d="M1730 2406 l0 -146 38 0 c94 0 157 44 134 95 -6 13 -22 31 -36 40
l-24 16 25 25 c48 48 9 98 -84 110 l-53 7 0 -147z"/>
<path d="M3010 1782 c-54 -54 -50 -197 7 -241 40 -33 107 -29 144 8 28 28 29
34 29 116 0 82 -1 88 -29 116 -24 24 -38 29 -76 29 -38 0 -52 -5 -75 -28z"/>
</g>
</svg>
